#!OML:ASF I:\Actors\actors\Patient Classification 2\Patient 1\Session 1\actor1.ASF
:FULLY-SPECIFIED
:DEGREES
228
root -0.431954 18.064 5.78595 1.3308 -24.6007 -3.09518
lowerback 0.242595 -6.31223 -2.43843
upperback -2.15313 -8.42911 2.52748
thorax -1.62163 -4.16501 4.03683
lowerneck -8.6872 6.00433 14.6786
upperneck 27.8352 4.45984 2.67188
head 10.8604 3.73332 -0.967671
rclavicle -5.5933e-014 -1.19271e-015
rhumerus 30.4702 44.6864 -19.9819
rradius 128.363
rwrist -87.6204
rhand -0.354101 -59.1577
rfingers 7.12502
rthumb 25.2512 -87.5067
lclavicle -5.5933e-014 -1.19271e-015
lhumerus 38.9415 19.0602 78.3652
lradius 60.6565
lwrist 77.8349
lhand -33.4829 -0.892081
lfingers 7.12502
lthumb -6.68036 28.9825
rfemur 10.8114 13.9889 15.5558
rtibia -16.4699
rfoot -0.183441 -8.07662
rtoes -1.53689
lfemur 17.6504 10.6511 -11.7788
ltibia -5.81516
lfoot -16.0989 17.9407
ltoes 3.19793
229
root -0.423567 18.0638 5.78858 1.35278 -24.9761 -3.09934
lowerback 0.376978 -6.43164 -2.28494
upperback -2.19971 -8.58864 2.47555
thorax -1.76103 -4.24372 3.92172
lowerneck -8.82094 5.94775 14.7295
upperneck 27.9592 4.26668 2.87146
head 10.924 3.67516 -0.922923
rclavicle -1.39696e-013 -7.95139e-015
rhumerus 31.9899 44.5028 -17.8056
rradius 128.524
rwrist -88.1739
rhand -0.247569 -58.8865
rfingers 7.12502
rthumb 25.3532 -87.2211
lclavicle -1.39696e-013 -7.95139e-015
lhumerus 38.5021 19.5594 78.9373
lradius 59.7778
lwrist 77.2943
lhand -33.6621 -0.450051
lfingers 7.12502
lthumb -6.85338 29.419
rfemur 10.7482 14.1759 15.5127
rtibia -16.5453
rfoot -0.0307712 -8.00135
rtoes -1.38546
lfemur 17.7008 11.0387 -11.7774
ltibia -5.76197
lfoot -16.1552 17.86
ltoes 3.2924
230
root -0.414457 18.0622 5.79312 1.32677 -25.4006 -3.09386
lowerback 0.510413 -6.58561 -2.21799
upperback -2.22772 -8.79486 2.49973
thorax -1.8536 -4.34565 3.92935
lowerneck -8.96519 5.8088 14.5965
upperneck 28.1525 3.98325 3.07425
head 11.0014 3.5602 -0.859636
rclavicle 7.2954e-014 9.74045e-015
rhumerus 32.4533 44.4516 -16.2425
rradius 128.756
rwrist -88.352
rhand -0.393977 -58.4138
rfingers 7.12502
rthumb 25.213 -86.7683
lclavicle 7.2954e-014 9.74045e-015
lhumerus 37.9753 20.2605 79.4665
lradius 58.9289
lwrist 76.7849
lhand -33.4708 -0.176277
lfingers 7.12502
lthumb -6.6687 29.6987
rfemur 10.7351 14.3634 15.4665
rtibia -16.6238
rfoot 0.159726 -7.89069
rtoes -1.2987
lfemur 17.7964 11.4672 -11.7713
ltibia -5.66752
lfoot -16.2144 17.7494
ltoes 3.48965
231
root -0.404906 18.0611 5.79695 1.31631 -25.8186 -3.04347
lowerback 0.631132 -6.76611 -2.21651
upperback -2.27271 -9.03716 2.55382
thorax -1.93933 -4.46449 4.00275
lowerneck -8.76425 5.80025 14.7543
upperneck 28.1873 3.9909 2.96306
head 10.9849 3.5633 -0.929486
rclavicle 1.25632e-013 -5.56597e-015
rhumerus 32.9937 44.4464 -14.8112
rradius 129.056
rwrist -88.5984
rhand -1.51391 -57.6158
rfingers 7.12502
rthumb 24.1395 -86.117
lclavicle 1.25632e-013 -5.56597e-015
lhumerus 37.4101 21.0912 80.0099
lradius 58.1758
lwrist 76.2582
lhand -33.3074 -0.105266
lfingers 7.12502
lthumb -6.51103 29.7746
rfemur 10.678 14.4759 15.3613
rtibia -16.7065
rfoot 0.416937 -7.71519
rtoes -1.59864
lfemur 17.8439 11.8947 -11.8165
ltibia -5.5725
lfoot -16.2485 17.6436
ltoes 3.565
232
root -0.396054 18.06 5.79966 1.34113 -26.2047 -3.07318
lowerback 0.800878 -6.8962 -2.09789
upperback -2.31992 -9.21079 2.54143
thorax -2.0888 -4.54957 3.95451
lowerneck -8.56639 5.73925 14.9738
upperneck 28.1865 3.87777 2.97246
head 10.9506 3.52896 -0.98096
rclavicle 7.51903e-014 0
rhumerus 33.6128 44.4624 -13.5687
rradius 129.387
rwrist -88.8751
rhand -2.36912 -57.2244
rfingers 7.12502
rthumb 23.3193 -85.8321
lclavicle 7.51903e-014 0
lhumerus 36.9853 21.7768 80.5685
lradius 57.3143
lwrist 75.8124
lhand -33.333 -0.412299
lfingers 7.12502
lthumb -6.53566 29.4669
rfemur 10.6382 14.6595 15.3406
rtibia -16.8212
rfoot 0.629876 -7.62397
rtoes -1.73241
lfemur 17.8414 12.2924 -11.7895
ltibia -5.40061
lfoot -16.3389 17.5263
ltoes 3.77929
233
root -0.388408 18.0573 5.80307 1.30624 -26.6438 -3.0938
lowerback 1.08061 -7.21773 -2.17335
upperback -2.20452 -9.6421 2.91329
thorax -2.01513 -4.76659 4.40011
lowerneck -9.03089 5.94487 14.1327
upperneck 28.3418 4.1795 3.20542
head 11.0749 3.61582 -0.710467
rclavicle -6.06542e-014 1.55052e-014
rhumerus 35.7054 44.086 -11.1127
rradius 129.735
rwrist -89.2645
rhand -0.363663 -58.3439
rfingers 7.12502
rthumb 25.242 -86.6942
lclavicle -6.06542e-014 1.55052e-014
lhumerus 36.9745 23.5153 81.6532
lradius 56.3947
lwrist 75.2247
lhand -33.1786 -0.312261
lfingers 7.12502
lthumb -6.38664 29.5715
rfemur 10.6733 14.9346 15.3243
rtibia -16.9666
rfoot 0.808757 -7.56283
rtoes -1.6244
lfemur 17.8689 12.7377 -11.7688
ltibia -5.1277
lfoot -16.4813 17.3921
ltoes 4.0328
